<?xml version="1.0" standalone="no"?>
<!DOCTYPE svg PUBLIC "-//W3C//DTD SVG 20010904//EN"
 "http://www.w3.org/TR/2001/REC-SVG-20010904/DTD/svg10.dtd">
<svg version="1.0" xmlns="http://www.w3.org/2000/svg"
 width="1186.000000pt" height="1186.000000pt" viewBox="0 0 1186.000000 1186.000000"
 preserveAspectRatio="xMidYMid meet">

<g transform="translate(0.000000,1186.000000) scale(0.100000,-0.100000)"
fill="#000000" stroke="none">
<path d="M0 5930 l0 -5930 5928 2 5927 3 3 5928 2 5927 -5930 0 -5930 0 0
-5930z m5961 5490 c5 0 9 -25 9 -55 l0 -54 58 -3 57 -3 0 -45 0 -45 -57 -3
-58 -3 0 -88 0 -88 41 -12 c49 -15 114 -71 140 -124 25 -49 34 -121 21 -170
-8 -30 -8 -37 4 -37 8 0 14 6 14 14 0 27 59 66 100 66 47 0 96 -37 105 -80 8
-35 15 -37 39 -11 26 29 71 44 109 37 39 -7 83 -49 93 -89 5 -24 10 -27 28
-22 55 19 91 16 126 -7 36 -24 55 -54 65 -100 5 -24 8 -26 39 -21 52 8 119
-26 152 -78 l27 -43 17 33 c20 41 53 60 100 61 67 0 117 -61 106 -132 -5 -30
-3 -38 9 -38 8 0 19 9 25 20 24 46 105 63 160 35 50 -26 78 -112 51 -155 -18
-27 -1 -29 36 -5 69 48 168 22 199 -50 19 -46 18 -73 -4 -116 l-18 -36 67 5
c58 4 73 1 104 -18 89 -55 99 -196 19 -259 -32 -25 -30 -31 8 -31 93 0 178
-89 178 -187 0 -66 -17 -102 -84 -173 -98 -104 -106 -119 -95 -172 25 -114
-64 -228 -176 -228 -12 0 -50 -28 -88 -65 -67 -66 -151 -115 -195 -115 -13 0
-84 23 -157 50 -322 121 -673 199 -1058 236 -317 30 -751 9 -1087 -52 -227
-41 -511 -122 -714 -201 -132 -52 -177 -40 -306 83 -54 51 -72 62 -108 67
-113 14 -191 138 -152 241 8 22 3 33 -32 78 -23 29 -63 76 -89 104 -43 46 -69
101 -69 144 0 95 94 190 187 190 l37 0 -31 33 c-43 45 -53 69 -53 124 0 57 26
104 72 134 27 17 45 20 101 16 37 -2 67 -2 67 2 0 3 -7 15 -15 25 -9 11 -15
41 -15 69 0 44 4 54 39 88 35 35 44 39 88 39 36 0 60 -7 85 -24 l36 -24 -6 64
c-5 62 -4 64 31 99 29 29 42 35 79 35 44 0 82 -18 106 -52 25 -35 39 -22 34
32 -4 46 -2 52 31 85 57 57 133 46 176 -26 l18 -29 24 37 c37 57 73 78 132 79
51 0 52 1 60 38 18 75 98 121 168 97 43 -15 49 -14 49 7 0 35 38 81 78 93 47
14 106 -1 125 -32 14 -23 37 -25 37 -4 0 29 28 71 55 83 58 27 134 2 150 -48
14 -43 22 -16 17 55 -4 66 -2 81 23 130 29 60 80 105 141 125 l34 12 0 89 0
89 -50 0 c-57 0 -76 21 -65 71 6 28 9 29 61 29 l54 0 0 54 c0 49 2 55 23 59
12 2 28 3 35 1 8 -2 18 -4 23 -4z m-2793 -2470 c46 -28 62 -73 62 -175 0 -47
3 -85 8 -85 21 0 56 38 82 90 62 122 130 170 241 170 55 0 73 -5 119 -33 97
-57 159 -183 145 -292 -14 -116 -100 -189 -241 -204 -46 -6 -83 -15 -92 -25
-19 -19 -23 -16 66 -50 87 -34 127 -64 142 -111 20 -59 -12 -150 -69 -198 -73
-61 -161 -60 -302 2 -50 23 -98 41 -107 41 -9 0 3 -18 31 -45 79 -78 83 -146
14 -213 -62 -60 -144 -68 -270 -26 -43 14 -81 24 -83 21 -3 -3 2 -19 10 -36
33 -62 10 -124 -54 -151 -47 -19 -153 -7 -228 25 l-63 28 -22 -22 c-45 -42
-80 -15 -51 40 15 29 14 31 -27 77 -104 117 -118 244 -33 311 29 23 68 27 110
11 15 -6 29 -9 31 -7 2 2 -11 42 -28 88 -58 155 -37 267 63 339 31 23 52 30
85 30 40 0 50 -5 103 -55 37 -36 59 -51 63 -43 2 7 -4 45 -15 83 -11 39 -22
106 -25 150 -4 73 -2 84 24 134 34 65 84 107 155 132 69 24 115 24 156 -1z
m5703 -10 c92 -46 146 -122 156 -215 4 -40 -2 -81 -23 -164 -16 -60 -25 -113
-20 -118 4 -4 22 9 40 30 66 79 129 96 198 54 104 -63 133 -177 82 -320 -43
-120 -44 -116 13 -104 61 13 98 -3 127 -53 43 -73 16 -178 -72 -281 -31 -36
-33 -43 -23 -65 28 -61 -7 -88 -56 -43 l-22 22 -62 -28 c-63 -28 -157 -43
-202 -31 -14 3 -39 18 -56 32 -25 21 -31 33 -31 65 0 22 7 53 15 69 9 17 12
30 8 30 -5 0 -43 -11 -86 -25 -141 -45 -230 -29 -292 54 -45 62 -34 112 44
194 19 20 29 37 21 37 -7 0 -52 -18 -99 -40 -98 -44 -150 -55 -216 -45 -87 12
-164 109 -165 204 0 39 5 49 43 85 28 27 65 49 110 65 97 34 83 67 -29 70
-105 3 -211 76 -234 163 -36 130 36 290 154 347 63 31 154 29 217 -6 53 -28
83 -63 119 -133 23 -46 67 -100 82 -100 4 0 8 24 9 53 1 120 25 186 80 215 33
18 116 9 170 -18z m-2909 1 c27 -16 66 -22 203 -31 376 -24 796 -109 1070
-216 40 -16 91 -28 119 -28 l49 -1 33 -89 c19 -49 33 -90 32 -91 -2 -1 -41
-23 -88 -49 l-85 -47 -32 35 c-27 29 -54 42 -170 80 -316 103 -629 162 -955
182 -115 7 -118 6 -163 -20 l-45 -27 -50 27 -50 27 -164 -12 c-327 -24 -611
-80 -921 -182 -101 -34 -125 -45 -151 -75 l-31 -36 -74 41 c-41 22 -80 45 -88
50 -12 7 -8 25 20 100 l34 92 45 -2 c31 -1 91 14 195 49 328 110 625 168 998
192 136 9 174 15 200 30 38 24 29 24 69 1z m418 -406 c256 -31 610 -112 802
-184 64 -25 81 -40 76 -73 -5 -37 -44 -34 -195 16 -231 75 -420 117 -683 153
-170 23 -692 26 -865 5 -248 -31 -514 -89 -737 -162 -138 -45 -163 -48 -178
-20 -21 40 2 56 148 104 301 98 566 149 932 180 108 9 573 -3 700 -19z m-4273
-510 c36 -11 62 -28 91 -59 43 -47 72 -95 72 -121 0 -9 13 -21 29 -26 80 -28
70 -190 -16 -246 l-24 -16 28 -29 c22 -23 25 -32 17 -46 -18 -28 -47 -25 -79
8 -27 28 -34 30 -97 30 -105 0 -159 34 -189 117 -8 25 -7 39 5 65 12 26 14 41
6 68 -24 83 -6 165 49 230 38 45 39 45 108 25z m7750 -24 c46 -55 56 -85 53
-163 -2 -98 -1 -118 5 -163 5 -32 2 -47 -17 -75 -41 -61 -81 -80 -164 -80 -67
0 -75 -2 -102 -30 -36 -35 -68 -39 -77 -9 -5 14 0 28 16 45 l23 24 -31 33
c-42 44 -63 89 -63 134 0 45 32 103 58 103 12 0 23 13 31 38 32 87 100 155
175 172 53 13 60 11 93 -29z m-7123 -493 c16 -17 37 -24 72 -25 71 -4 128 -29
169 -74 58 -65 61 -78 28 -135 -39 -66 -101 -104 -182 -111 -45 -4 -64 -11
-71 -23 -15 -28 -67 -42 -111 -30 -72 20 -139 101 -139 169 0 25 -5 31 -35 41
-44 15 -68 46 -54 72 11 21 31 23 60 6 18 -11 23 -10 33 6 59 97 97 126 163
126 32 0 50 -6 67 -22z m6546 -8 c18 -13 42 -44 54 -70 22 -47 22 -47 49 -33
37 19 67 9 67 -23 0 -19 -10 -29 -44 -46 -40 -19 -45 -26 -51 -64 -7 -51 -53
-117 -96 -139 -17 -9 -51 -17 -76 -18 -38 -2 -49 2 -68 26 -19 21 -33 27 -67
27 -45 0 -119 29 -152 58 -27 25 -66 89 -66 109 1 10 13 36 28 58 35 51 118
94 191 99 38 3 59 10 75 26 28 29 108 24 156 -10z m-7023 -170 c55 -24 127
-92 153 -144 27 -56 27 -153 1 -204 -21 -40 -65 -85 -123 -122 -36 -24 -64
-65 -50 -74 4 -2 27 0 52 4 66 13 151 12 180 -3 47 -24 70 -73 70 -149 0 -76
-12 -108 -57 -149 -47 -44 -90 -60 -191 -70 -155 -16 -157 -17 -82 -45 40 -14
76 -35 94 -55 25 -28 28 -37 24 -85 -9 -101 -66 -153 -204 -185 -127 -30 -122
-27 -85 -50 43 -26 66 -80 51 -123 -22 -67 -101 -112 -225 -128 -83 -10 -84
-11 -95 -44 -18 -52 -54 -40 -62 19 -2 25 -12 32 -60 52 -111 45 -175 108
-185 183 -9 67 43 132 107 132 34 0 20 22 -56 88 -88 75 -114 123 -114 212 0
77 28 143 71 165 36 19 100 19 146 0 75 -32 71 -15 -22 86 -94 103 -119 153
-119 239 1 165 168 306 274 230 24 -17 45 -46 108 -149 24 -40 37 -9 43 112 6
119 18 157 68 210 68 74 182 93 288 47z m7512 19 c68 -14 120 -55 156 -120 26
-49 29 -64 31 -158 1 -75 6 -107 16 -118 13 -12 20 -6 56 55 54 90 91 122 143
122 49 0 83 -17 131 -67 52 -54 78 -115 78 -188 0 -83 -25 -130 -115 -225 -41
-43 -75 -86 -75 -94 0 -19 -2 -19 50 -1 23 8 63 15 87 15 38 0 51 -6 78 -33
73 -73 72 -220 -2 -302 -10 -11 -46 -44 -80 -74 -35 -29 -61 -57 -58 -61 3 -4
19 -10 37 -14 18 -3 45 -18 60 -33 23 -22 28 -35 28 -75 0 -56 -16 -91 -57
-130 -28 -27 -147 -88 -170 -88 -8 0 -13 -12 -13 -28 0 -64 -54 -83 -66 -23
-6 27 -10 29 -68 35 -153 17 -242 70 -253 154 -5 40 -3 45 36 82 47 45 49 43
-57 65 -145 30 -203 83 -210 191 -4 61 -3 65 28 94 18 17 58 38 93 49 73 22
66 25 -87 40 -119 12 -178 38 -219 97 -59 84 -44 220 30 265 31 19 44 21 121
16 48 -3 95 -9 105 -12 12 -5 17 -2 17 12 0 21 -23 44 -87 87 -80 53 -126 154
-108 238 24 108 118 200 232 227 52 12 56 12 112 0z m-4939 -397 l0 -38 -61
-12 c-83 -15 -189 -66 -279 -133 -84 -63 -495 -472 -495 -493 0 -16 461 -529
619 -688 158 -160 224 -202 349 -223 34 -5 37 -9 37 -39 0 -32 -2 -34 -46 -40
-71 -9 -225 -7 -285 4 -83 16 -186 71 -266 141 -39 35 -205 210 -368 388
l-297 323 4 -293 c5 -313 9 -341 56 -391 29 -32 105 -63 177 -73 82 -11 85
-13 85 -51 l0 -34 -435 0 -435 0 0 35 c0 38 -6 34 101 55 93 18 140 47 169
105 l25 50 3 555 c3 604 -1 668 -45 721 -35 41 -66 55 -166 76 l-87 18 0 32 0
33 405 0 405 0 0 -33 c0 -33 -1 -33 -63 -46 -79 -15 -135 -47 -159 -87 -29
-49 -39 -171 -36 -417 l3 -228 185 197 c102 109 213 232 248 273 75 90 127
189 117 221 -8 24 -60 50 -100 50 -23 0 -25 4 -25 40 l0 40 330 0 330 0 0 -38z
m1730 11 c0 -16 7 -122 15 -237 8 -115 12 -213 10 -217 -3 -3 -18 -9 -35 -11
-28 -4 -31 -2 -41 36 -21 79 -77 184 -121 228 -80 81 -171 108 -359 108 l-120
0 4 -647 c2 -479 6 -658 15 -685 28 -82 91 -126 214 -148 115 -21 108 -17 108
-55 l0 -35 -465 0 -465 0 0 35 c0 32 3 35 38 41 176 30 238 60 274 131 l23 48
3 659 3 658 -148 -4 c-124 -4 -158 -8 -207 -28 -107 -41 -175 -123 -227 -270
-24 -67 -29 -75 -50 -72 -13 2 -28 8 -33 12 -9 9 10 424 20 463 5 16 51 17
775 17 l769 0 0 -27z m1070 -17 l0 -33 -86 -16 c-99 -18 -169 -50 -197 -88
-30 -42 -36 -98 -37 -341 l0 -228 436 0 435 0 -3 263 c-3 293 -6 306 -73 347
-19 12 -82 31 -140 43 l-105 22 0 32 0 33 435 0 435 0 0 -34 c0 -33 -2 -34
-47 -41 -141 -21 -208 -61 -234 -143 -16 -47 -25 -1028 -11 -1153 18 -165 49
-192 270 -235 18 -4 22 -11 22 -39 l0 -35 -435 0 -435 0 0 34 c0 38 3 40 80
51 84 13 165 44 192 72 42 45 48 88 48 376 l0 267 -436 0 -436 0 4 -282 c4
-313 8 -335 67 -377 26 -19 122 -47 229 -67 18 -4 22 -11 22 -39 l0 -35 -435
0 -435 0 0 34 c0 38 3 40 80 51 66 11 144 42 167 68 47 51 48 66 48 682 0 319
-4 597 -8 618 -10 48 -56 101 -105 120 -20 8 -70 20 -109 27 l-73 13 0 34 0
33 435 0 435 0 0 -34z m-6304 -1161 c27 -8 67 -29 88 -47 30 -25 47 -32 73
-29 28 2 40 -4 68 -33 47 -50 56 -114 30 -203 -6 -18 -2 -22 21 -25 31 -3 50
-28 41 -52 -7 -17 -56 -21 -92 -7 -15 6 -32 0 -65 -22 -34 -24 -59 -32 -102
-35 -95 -7 -158 34 -158 102 0 23 -9 41 -31 62 -64 61 -93 162 -67 238 11 33
20 41 53 52 55 16 83 16 141 -1z m9344 1 c50 -15 57 -29 59 -121 1 -58 -22
-115 -68 -167 -20 -23 -31 -46 -31 -66 0 -40 -49 -89 -96 -98 -61 -11 -123 1
-171 35 -36 26 -48 29 -64 21 -11 -6 -34 -10 -52 -8 -26 2 -32 7 -32 27 0 23
11 34 48 45 14 5 16 10 7 25 -18 34 -12 132 10 168 25 42 64 67 95 61 14 -3
30 1 36 8 16 20 76 55 118 70 47 17 85 17 141 0z m-8366 -106 l38 -23 -4 -68
c-4 -79 -35 -133 -105 -184 -25 -18 -42 -38 -42 -51 -1 -25 -34 -62 -68 -75
-71 -27 -175 5 -221 67 -16 23 -27 27 -73 28 -53 1 -54 1 -54 31 0 28 3 30 38
33 l39 3 -7 39 c-9 55 10 115 51 156 33 32 40 35 87 33 36 -1 66 5 97 20 61
30 167 26 224 -9z m7488 3 c27 -16 46 -20 80 -16 37 4 49 1 76 -22 47 -39 62
-75 62 -145 0 -59 0 -60 29 -60 36 0 59 -25 44 -48 -7 -12 -24 -17 -59 -17
-43 0 -52 -4 -82 -36 -42 -47 -88 -69 -147 -69 -73 0 -125 36 -125 87 0 10
-18 29 -40 42 -69 43 -119 133 -118 212 0 46 4 52 53 78 53 28 174 25 227 -6z
m-7988 -417 c166 -50 226 -196 148 -360 -51 -109 -41 -132 32 -72 91 74 164
94 218 58 59 -39 98 -112 98 -182 0 -90 -45 -150 -176 -233 -78 -50 -104 -75
-63 -63 13 4 54 10 91 13 66 6 68 5 102 -29 25 -25 36 -46 41 -82 14 -89 -21
-153 -134 -248 l-63 -53 33 -3 c105 -9 145 -79 100 -177 -19 -42 -104 -126
-154 -151 -27 -15 -29 -18 -23 -58 5 -32 3 -46 -9 -56 -13 -11 -19 -10 -35 5
-11 10 -22 26 -25 36 -6 17 -14 18 -93 13 -104 -8 -159 5 -207 47 -37 33 -60
87 -50 120 4 11 21 36 38 55 37 43 33 46 -66 64 -77 13 -137 39 -175 74 -60
54 -89 174 -58 235 18 35 81 70 126 71 31 0 55 14 47 27 -4 6 -41 20 -84 33
-149 44 -221 98 -258 193 -24 63 -17 168 15 224 53 95 140 96 275 4 17 -12 34
-21 39 -21 18 0 -2 77 -33 125 -147 231 39 470 303 391z m8461 -10 c101 -47
140 -108 139 -216 0 -70 -3 -81 -48 -166 -35 -66 -46 -96 -39 -107 7 -14 18
-11 78 25 91 55 156 63 202 24 79 -66 92 -229 27 -329 -37 -57 -97 -94 -204
-127 -116 -36 -141 -56 -83 -65 69 -12 99 -25 129 -56 25 -26 29 -37 28 -88
-1 -43 -8 -70 -30 -110 -43 -81 -95 -109 -257 -141 l-57 -11 35 -42 c85 -100
5 -216 -155 -225 -36 -2 -83 1 -106 6 -40 9 -41 9 -62 -29 -24 -41 -29 -44
-51 -30 -10 7 -12 21 -8 53 l5 43 -67 47 c-88 60 -131 123 -131 190 0 41 5 54
29 79 23 23 38 29 73 29 l43 1 -77 72 c-97 90 -118 126 -118 195 0 95 48 152
130 152 26 0 61 -5 78 -11 67 -23 50 0 -49 67 -128 86 -164 136 -164 225 1 67
39 139 94 176 61 41 116 29 217 -48 28 -22 56 -39 62 -39 20 0 13 35 -19 96
-74 138 -38 283 85 346 60 31 83 36 156 37 48 1 78 -5 115 -23z m-3616 -542
c30 -6 31 -8 31 -61 0 -46 -3 -54 -16 -49 -33 12 -94 18 -128 12 -45 -9 -66
-30 -66 -67 0 -27 6 -33 58 -55 155 -67 192 -101 192 -176 0 -133 -140 -218
-315 -191 l-50 8 0 55 c0 44 3 54 15 51 8 -2 43 -6 77 -8 74 -7 115 7 132 44
17 38 -11 72 -77 94 -125 43 -162 82 -162 172 0 110 81 173 226 176 28 1 66
-2 83 -5z m-3230 -122 c24 -64 58 -159 77 -211 18 -52 35 -88 38 -80 8 24 104
281 129 344 l23 60 67 3 c66 3 67 3 58 -20 -22 -58 -175 -459 -193 -506 l-20
-53 -71 3 -72 3 -107 280 c-59 154 -108 283 -108 288 0 4 30 7 68 7 l67 0 44
-118z m881 68 l0 -50 -105 0 -105 0 0 -65 0 -65 100 0 100 0 0 -50 0 -50 -100
0 -100 0 0 -75 0 -75 105 0 105 0 0 -50 0 -50 -170 0 -170 0 0 290 0 290 170
0 170 0 0 -50z m580 -5 l0 -55 -75 0 -75 0 -2 -232 -3 -233 -62 -3 -63 -3 0
235 0 235 -77 3 -78 3 -3 53 -3 52 220 0 221 0 0 -55z m510 5 l0 -50 -110 0
-110 0 0 -65 0 -65 105 0 105 0 0 -50 0 -50 -105 0 -105 0 0 -75 0 -75 110 0
110 0 0 -50 0 -50 -170 0 -170 0 0 290 0 290 170 0 170 0 0 -50z m481 -112
c57 -90 113 -181 126 -203 l24 -40 -3 203 -4 202 58 0 58 0 0 -290 0 -290 -77
0 -78 0 -106 168 c-59 92 -114 182 -123 200 -9 17 -18 32 -19 32 -1 0 -2 -89
-2 -197 l0 -198 -57 -3 -58 -3 0 291 0 290 79 0 79 0 103 -162z m1169 42 c0
-66 3 -120 8 -119 4 0 51 54 105 120 l99 119 75 0 c70 0 75 -1 62 -17 -17 -22
-176 -210 -201 -239 -18 -21 -17 -22 102 -167 66 -80 120 -148 120 -151 0 -3
-35 -6 -78 -6 l-78 0 -104 133 -105 132 -3 -132 -3 -133 -59 0 -60 0 0 290 0
290 60 0 60 0 0 -120z m926 -160 c57 -151 104 -280 104 -288 0 -10 -17 -12
-67 -10 l-66 3 -17 50 -17 50 -119 3 -119 3 -20 -53 -21 -53 -62 -3 c-34 -2
-62 -1 -62 2 0 7 209 556 216 567 3 5 37 9 76 7 l71 -3 103 -275z m565 268
c107 -36 156 -143 114 -246 -34 -81 -103 -123 -212 -130 l-73 -5 0 -93 0 -94
-60 0 -60 0 0 290 0 290 129 0 c70 0 143 -5 162 -12z m-5977 -854 c9 -4 28
-31 42 -61 32 -66 30 -144 -3 -212 -15 -30 -19 -53 -16 -81 14 -105 -114 -174
-243 -131 -39 12 -44 12 -71 -9 -61 -44 -115 0 -57 47 25 20 27 25 16 40 -62
86 -54 211 15 242 13 6 30 11 38 11 8 0 15 5 15 10 0 17 81 100 114 118 17 9
54 19 81 23 28 3 51 7 52 8 1 0 9 -2 17 -5z m6888 -21 c41 -20 97 -72 114
-104 9 -18 23 -29 35 -29 30 0 76 -51 84 -93 10 -51 -1 -98 -31 -143 -18 -26
-22 -40 -14 -42 21 -7 52 -42 48 -54 -10 -29 -38 -33 -81 -11 -40 21 -45 21
-96 8 -95 -26 -176 3 -216 77 -15 29 -17 42 -10 64 8 22 6 37 -10 69 -13 26
-21 65 -23 115 -3 69 -1 79 27 122 l30 47 58 -6 c32 -3 70 -12 85 -20z m-5721
-69 c235 -70 240 -454 8 -554 -62 -26 -160 -31 -234 -10 -69 19 -138 89 -159
161 -19 64 -20 170 -2 222 56 155 218 231 387 181z m733 0 c7 -3 10 -24 8 -60
-3 -47 -6 -54 -20 -49 -10 4 -46 10 -83 12 -126 10 -192 -55 -193 -188 0 -73
19 -117 67 -152 33 -25 139 -35 188 -18 18 6 33 10 35 8 1 -1 6 -26 10 -54 l6
-52 -43 -11 c-25 -7 -83 -10 -134 -8 -72 3 -99 9 -135 28 -92 52 -139 157
-127 287 13 137 99 236 230 263 39 8 164 4 191 -6z m2197 -7 c52 -22 104 -71
130 -125 33 -69 34 -205 0 -279 -48 -107 -146 -166 -276 -166 -92 0 -143 18
-193 66 -63 60 -77 99 -77 217 0 99 2 108 31 160 59 104 155 154 280 146 38
-2 86 -11 105 -19z m1368 17 c28 -6 31 -10 31 -44 0 -64 -4 -68 -64 -57 -71
13 -122 3 -143 -30 -27 -42 -3 -72 85 -104 95 -35 139 -69 152 -119 23 -85
-20 -167 -109 -209 -47 -22 -69 -26 -142 -25 -47 1 -91 4 -97 8 -7 4 -12 31
-12 62 l0 54 28 -7 c15 -5 57 -8 93 -8 77 0 109 19 109 66 0 34 -21 50 -108
81 -36 13 -80 37 -98 53 -87 82 -35 236 91 270 55 15 135 19 184 9z m-3249
-119 l0 -115 135 0 135 0 0 115 0 115 60 0 60 0 0 -290 0 -290 -60 0 -60 0 0
125 0 126 -132 -3 -133 -3 -3 -122 -3 -123 -59 0 -60 0 0 290 0 290 60 0 60 0
0 -115z m1022 -5 l3 -119 98 119 98 120 75 0 c57 0 73 -3 68 -12 -7 -11 -145
-175 -206 -244 -19 -21 -18 -22 101 -165 67 -79 121 -147 121 -151 0 -5 -35
-8 -78 -8 l-77 0 -100 127 -100 127 -5 -125 -5 -124 -62 -3 -63 -3 0 291 0
290 65 0 64 0 3 -120z m1411 20 c34 -52 89 -142 124 -199 l63 -104 0 202 0
201 60 0 60 0 -2 -287 -3 -288 -80 -3 -80 -2 -70 111 c-38 61 -94 150 -122
197 l-53 85 0 -196 0 -197 -60 0 -60 0 0 290 0 291 81 -3 82 -3 60 -95z m1427
45 l0 -55 -75 0 -75 0 -2 -232 -3 -233 -60 0 -60 0 -3 233 -2 232 -75 0 -75 0
0 55 0 55 215 0 215 0 0 -55z m-6711 -250 c38 -35 53 -62 66 -119 5 -26 9 -28
37 -22 35 7 58 -7 58 -35 0 -21 -35 -39 -74 -39 -17 0 -28 -10 -42 -41 -38
-86 -98 -129 -177 -129 -47 0 -97 29 -97 55 0 8 -17 19 -39 25 -92 24 -170
104 -186 188 -5 29 -2 39 22 64 57 61 150 88 233 69 36 -8 48 -7 60 4 8 9 33
15 57 15 35 0 50 -6 82 -35z m8156 21 c14 -10 29 -11 59 -4 81 18 173 -8 230
-67 36 -37 44 -59 26 -70 -5 -3 -10 -17 -10 -31 0 -40 -97 -131 -155 -146 -33
-9 -51 -20 -58 -36 -22 -48 -103 -66 -170 -38 -40 16 -91 73 -108 120 -11 31
-18 36 -44 36 -42 0 -68 20 -63 51 3 21 7 24 44 21 41 -2 42 -1 48 35 13 80
77 143 147 143 19 0 44 -6 54 -14z m-7590 -245 c70 -40 102 -101 114 -214 13
-136 25 -139 79 -24 41 87 73 121 122 132 59 13 159 -37 194 -97 46 -78 37
-167 -31 -300 -25 -49 -43 -91 -40 -94 2 -3 28 15 56 39 29 25 66 48 83 51 41
8 93 -18 132 -67 26 -32 31 -49 34 -105 3 -56 -1 -81 -27 -150 -17 -46 -31
-85 -31 -88 0 -2 13 2 30 11 38 20 90 19 116 -3 67 -53 70 -156 9 -279 l-36
-74 25 -30 c14 -16 23 -36 20 -44 -8 -20 -44 -19 -72 1 -22 15 -26 13 -90 -30
-113 -76 -209 -85 -273 -25 -31 29 -32 31 -26 98 l6 68 -90 -28 c-109 -35
-167 -37 -234 -5 -59 27 -88 57 -110 110 -26 61 -13 99 52 162 69 66 58 75
-56 45 -193 -50 -320 -5 -382 134 -28 63 -34 136 -15 177 27 56 66 73 176 73
79 0 94 3 92 15 -6 25 -23 40 -74 66 -113 57 -168 137 -168 244 0 108 53 184
164 236 77 36 184 34 251 -5z m7125 10 c110 -42 180 -134 180 -238 0 -97 -50
-175 -147 -232 -71 -42 -103 -70 -103 -89 0 -12 11 -13 56 -7 92 11 153 -2
193 -42 33 -33 34 -34 29 -106 -5 -81 -29 -136 -80 -187 -72 -73 -166 -87
-324 -49 -51 12 -90 17 -96 11 -5 -5 14 -31 47 -64 50 -50 55 -59 55 -99 0
-100 -101 -189 -214 -189 -25 0 -80 11 -123 25 -95 30 -118 32 -108 8 31 -70
11 -133 -49 -163 -74 -36 -140 -23 -242 46 -63 42 -68 43 -90 29 -56 -37 -95
-3 -50 44 l26 27 -37 73 c-31 60 -38 86 -41 145 -3 62 -1 76 20 106 31 45 66
57 121 43 23 -6 44 -10 46 -8 2 3 -8 35 -21 72 -14 37 -29 87 -32 110 -14 81
30 169 101 204 37 18 47 19 80 8 20 -6 56 -30 80 -52 23 -22 43 -34 43 -26 0
7 -21 55 -46 107 -77 157 -69 262 26 331 122 88 215 55 275 -98 16 -40 33 -70
39 -68 21 7 36 53 36 112 0 102 56 190 140 224 43 17 155 13 210 -8z m-5922
-855 c20 -13 45 -32 54 -42 30 -34 58 -108 58 -156 0 -37 6 -53 25 -72 43 -43
31 -130 -27 -182 -35 -33 -83 -54 -121 -54 -30 0 -36 -5 -52 -40 -32 -72 -102
-66 -76 6 11 30 11 38 0 45 -8 5 -17 9 -21 9 -5 0 -26 16 -48 36 -63 57 -77
154 -28 188 15 11 22 29 25 62 7 89 49 158 123 207 34 22 44 21 88 -7z m4582
-5 c55 -34 110 -130 110 -193 0 -31 6 -47 25 -64 57 -53 18 -174 -71 -219 -21
-11 -41 -21 -42 -22 -2 -1 4 -15 14 -32 15 -25 15 -32 4 -46 -22 -26 -53 -14
-78 33 -19 35 -29 42 -53 42 -41 0 -100 32 -136 74 -50 56 -53 134 -8 171 7 6
16 37 19 69 9 81 49 151 106 187 25 16 50 28 55 28 6 0 30 -13 55 -28z m-3815
-494 c68 -39 105 -113 105 -213 0 -76 12 -174 21 -174 4 0 11 15 14 33 21 93
73 147 144 147 107 -1 172 -77 197 -231 8 -51 17 -95 19 -97 2 -2 21 14 43 37
46 48 81 53 133 18 66 -44 99 -125 99 -240 l0 -52 78 -17 c107 -22 132 -33
132 -58 0 -30 -21 -34 -126 -24 l-94 9 -29 -61 c-32 -68 -89 -138 -132 -160
-78 -40 -173 0 -185 77 -4 22 -12 39 -19 39 -7 0 -37 -27 -66 -61 -74 -85
-136 -119 -219 -119 -159 1 -225 90 -170 230 30 75 -2 66 -107 -32 -154 -143
-353 -130 -454 30 -61 97 -29 165 109 233 34 16 62 34 62 38 0 23 -39 35 -133
41 -119 8 -166 27 -220 90 -86 101 -71 253 36 363 49 49 104 78 163 85 101 11
179 -32 249 -139 25 -38 47 -69 49 -69 3 0 11 -2 18 -5 12 -5 14 15 14 115
l-1 121 37 35 c36 33 41 34 115 34 62 0 86 -5 118 -23z m3163 3 c52 -32 66
-77 57 -192 -4 -56 -3 -98 2 -98 17 0 41 25 68 70 60 99 138 150 230 150 99 0
210 -82 257 -188 47 -104 16 -233 -70 -299 -54 -41 -98 -53 -192 -53 -72 0
-120 -13 -127 -35 -2 -6 25 -25 60 -42 126 -62 163 -118 133 -198 -21 -54 -97
-126 -158 -150 -62 -23 -158 -18 -216 13 -24 12 -77 51 -118 87 -40 36 -81 65
-89 65 -19 0 -19 1 5 -60 11 -28 20 -65 20 -83 0 -80 -79 -137 -190 -137 -87
0 -132 24 -221 118 l-73 77 -12 -50 c-17 -66 -50 -95 -110 -95 -89 0 -166 67
-215 186 -15 35 -28 53 -36 50 -7 -3 -52 -8 -101 -12 -76 -6 -89 -4 -102 11
-13 15 -12 19 8 35 19 16 142 50 178 50 8 0 14 1 14 3 7 98 23 187 41 223 23
49 80 94 117 94 35 0 77 -26 100 -62 l21 -32 5 24 c3 14 11 57 16 95 21 141
84 215 190 223 58 4 62 3 93 -30 18 -20 40 -59 51 -93 24 -77 32 -59 38 80 7
150 42 224 123 261 48 21 164 18 203 -6z m-4291 -171 c23 -11 52 -34 64 -51
l21 -29 23 21 c29 27 69 24 73 -6 2 -13 -9 -33 -29 -52 -29 -28 -32 -37 -33
-94 -1 -79 -26 -131 -77 -165 -32 -21 -45 -24 -81 -18 -24 3 -77 6 -120 5 -42
-1 -94 4 -116 10 -43 11 -117 65 -127 91 -10 29 34 126 71 158 38 34 105 71
128 71 8 0 21 12 28 27 26 55 100 68 175 32z m5343 6 c16 -9 32 -26 36 -39 4
-17 15 -26 38 -30 46 -9 119 -59 149 -104 14 -20 28 -57 32 -80 7 -42 5 -46
-33 -82 -57 -55 -153 -75 -239 -51 -24 7 -35 6 -44 -5 -18 -22 -81 -17 -120 9
-52 35 -79 90 -79 165 0 58 -2 65 -31 89 -22 19 -29 33 -27 52 4 34 33 39 63
11 l24 -23 27 32 c54 64 142 88 204 56z m-3315 -187 c68 -35 126 -89 274 -255
l124 -140 58 64 59 65 -27 35 c-80 105 -234 212 -328 229 -103 18 -50 41 74
32 92 -7 156 -43 257 -145 l81 -81 79 79 c107 108 187 149 288 148 39 0 80 -4
91 -9 18 -7 17 -8 -10 -15 -70 -16 -125 -38 -171 -66 -53 -33 -214 -187 -214
-204 1 -5 26 -37 56 -70 l55 -60 81 90 c153 168 271 280 323 305 53 26 148 37
211 26 45 -9 41 -13 -30 -31 -127 -33 -220 -107 -429 -343 l-100 -113 35 -37
c19 -20 76 -83 128 -140 108 -119 184 -174 282 -203 82 -25 75 -39 -19 -39
-121 0 -219 62 -373 235 -56 64 -106 114 -110 113 -4 -2 -31 -29 -59 -60 -52
-57 -52 -57 -35 -83 22 -33 115 -110 164 -135 19 -10 62 -26 94 -35 72 -21 59
-35 -34 -35 -80 0 -157 34 -245 107 l-60 51 -51 -47 c-77 -70 -145 -103 -225
-109 -37 -2 -80 -1 -96 3 -25 6 -20 9 52 34 91 30 148 67 217 138 l47 48 -58
66 -58 67 -64 -75 c-174 -205 -289 -284 -409 -282 -102 1 -115 12 -36 33 98
27 167 77 305 224 137 144 146 155 134 176 -18 32 -278 310 -326 348 -59 47
-128 79 -207 98 -76 18 -42 31 70 27 68 -3 95 -9 135 -29z"/>
<path d="M5842 10943 c-18 -9 -42 -29 -53 -44 l-20 -29 55 0 56 0 0 45 c0 25
-1 45 -2 45 -2 0 -18 -8 -36 -17z"/>
<path d="M5970 10915 l0 -45 55 0 c30 0 55 4 55 8 0 17 -82 82 -104 82 -3 0
-6 -20 -6 -45z"/>
<path d="M5750 10781 c0 -10 5 -32 11 -50 9 -25 16 -31 40 -31 25 0 29 4 29
28 0 16 9 38 20 50 l21 22 -61 0 c-52 0 -60 -3 -60 -19z"/>
<path d="M6009 10774 c12 -15 21 -37 21 -50 0 -20 5 -24 28 -24 25 0 31 6 40
39 18 60 18 61 -49 61 l-60 0 20 -26z"/>
<path d="M5895 10730 c-13 -41 43 -70 64 -33 13 25 -5 53 -34 53 -15 0 -26 -7
-30 -20z"/>
<path d="M5541 10686 c-21 -26 -9 -51 24 -51 27 0 30 3 30 30 0 23 -5 31 -21
33 -11 2 -26 -4 -33 -12z"/>
<path d="M6260 10679 c-9 -15 -8 -24 1 -35 28 -33 80 -3 59 35 -6 12 -19 21
-30 21 -11 0 -24 -9 -30 -21z"/>
<path d="M5306 10634 c-40 -39 0 -98 50 -75 31 14 34 65 5 81 -27 14 -37 13
-55 -6z"/>
<path d="M6490 10630 c-11 -11 -20 -24 -20 -30 0 -12 37 -50 48 -50 18 0 52
33 52 50 0 17 -34 50 -52 50 -5 0 -17 -9 -28 -20z"/>
<path d="M5886 10611 c-23 -25 -15 -66 15 -82 49 -26 100 23 75 72 -16 32 -65
38 -90 10z"/>
<path d="M5657 10554 c-278 -43 -461 -152 -547 -327 -70 -143 -77 -300 -20
-465 17 -48 19 -65 10 -82 -9 -17 -7 -26 15 -52 14 -17 28 -43 31 -57 5 -25 8
-26 59 -23 153 10 243 -169 143 -284 -42 -48 -77 -64 -138 -64 -54 0 -81 10
-117 43 -22 20 -23 20 -23 1 1 -36 38 -101 74 -129 77 -59 188 -43 272 39 28
28 53 58 56 66 3 11 17 4 53 -28 48 -42 121 -72 175 -72 98 0 180 81 180 177
0 38 -1 38 -18 16 -52 -65 -167 -85 -233 -40 -95 64 -114 182 -43 267 35 41
74 60 124 60 39 0 40 1 40 33 0 26 -6 36 -30 50 -16 10 -30 24 -30 30 0 54 24
357 36 457 17 141 46 296 68 358 l15 42 -32 -1 c-18 -1 -71 -7 -120 -15z"/>
<path d="M6054 10555 c49 -128 106 -546 106 -775 0 -75 -1 -80 -28 -99 -23
-16 -28 -26 -24 -50 4 -28 8 -31 39 -31 46 0 106 -32 134 -72 35 -48 39 -145
9 -193 -36 -58 -85 -85 -154 -85 -65 0 -109 21 -146 68 l-21 27 5 -54 c18
-178 220 -228 366 -91 l34 32 16 -23 c34 -52 63 -79 112 -103 123 -61 249 -10
276 112 l10 41 -36 -27 c-31 -23 -45 -27 -106 -27 -58 0 -77 4 -104 23 -105
75 -92 252 21 306 20 9 60 16 91 16 48 0 56 3 56 18 0 11 13 37 28 58 23 31
27 44 19 61 -7 15 -3 39 12 85 79 237 21 477 -148 615 -117 96 -288 155 -510
179 -58 6 -63 5 -57 -11z"/>
<path d="M5095 10525 c-30 -29 -31 -49 -5 -75 25 -25 62 -26 83 -2 23 25 21
58 -3 82 -26 26 -46 25 -75 -5z"/>
<path d="M6697 10539 c-52 -30 -31 -108 30 -109 51 0 73 75 31 104 -26 19 -36
19 -61 5z"/>
<path d="M5869 10451 c-32 -33 -36 -58 -14 -100 23 -46 83 -56 127 -21 65 50
22 150 -63 150 -11 0 -34 -13 -50 -29z"/>
<path d="M4914 10400 c-29 -11 -54 -49 -54 -78 0 -31 52 -82 84 -82 14 0 37
11 52 24 69 59 1 171 -82 136z"/>
<path d="M6859 10381 c-45 -45 -37 -100 18 -129 33 -18 59 -15 87 11 43 38 36
106 -14 132 -41 21 -58 19 -91 -14z"/>
<path d="M4640 10365 c-26 -32 13 -81 48 -59 34 22 22 74 -18 74 -10 0 -23 -7
-30 -15z"/>
<path d="M7162 10368 c-25 -25 -6 -68 30 -68 9 0 22 9 28 20 22 40 -26 80 -58
48z"/>
<path d="M4391 10266 c-16 -19 -10 -66 10 -79 26 -16 68 0 75 29 12 47 -55 87
-85 50z"/>
<path d="M7392 10268 c-7 -7 -12 -24 -12 -38 0 -14 5 -31 12 -38 28 -28 88 -2
88 38 0 40 -60 66 -88 38z"/>
<path d="M5854 10226 c-28 -28 -34 -42 -34 -76 0 -35 6 -48 35 -77 33 -33 39
-35 81 -30 68 7 99 42 99 108 0 45 -4 54 -33 80 -47 43 -102 41 -148 -5z"/>
<path d="M4690 10206 c-369 -154 -556 -373 -580 -676 -4 -58 -9 -110 -11 -116
-2 -5 13 -25 34 -43 20 -18 40 -44 43 -56 l6 -23 35 20 c42 26 125 28 170 5
17 -9 42 -30 57 -47 106 -127 -4 -320 -169 -295 -60 8 -75 -12 -40 -53 32 -39
103 -67 149 -59 81 13 157 71 197 150 12 23 23 44 25 46 1 2 15 -6 30 -18 15
-12 49 -28 77 -36 153 -45 279 31 279 167 0 48 -10 75 -19 50 -10 -26 -54 -70
-87 -86 -120 -57 -256 31 -256 165 0 80 75 169 143 169 26 0 29 3 23 23 -3 12
-6 30 -6 39 0 9 -9 20 -20 23 -11 4 -34 18 -50 32 -91 77 -94 230 -6 312 l26
24 -34 38 c-65 71 -54 177 23 242 39 33 33 33 -39 3z"/>
<path d="M7128 10205 c44 -36 62 -75 62 -135 0 -57 -10 -81 -48 -122 l-25 -28
25 -20 c59 -46 85 -159 54 -234 -17 -40 -81 -104 -113 -112 -19 -5 -23 -13
-23 -45 0 -34 3 -39 24 -39 52 0 129 -78 142 -145 13 -71 -32 -157 -100 -189
-42 -20 -118 -21 -155 -2 -31 17 -91 80 -92 99 0 7 -4 3 -9 -8 -27 -62 8 -160
70 -201 73 -48 201 -40 283 18 15 11 29 19 30 17 2 -2 10 -20 19 -39 59 -130
209 -194 311 -131 41 25 62 55 53 78 -5 11 -17 13 -59 8 -90 -11 -162 30 -193
111 -33 87 5 192 82 229 48 22 121 22 169 -1 32 -15 39 -16 43 -4 3 7 22 32
42 54 l38 41 -9 105 c-12 138 -49 253 -111 346 -98 147 -273 275 -478 351
l-65 24 33 -26z"/>
<path d="M4768 10141 c-27 -24 -33 -36 -33 -71 0 -35 6 -47 33 -71 54 -48 129
-35 161 28 50 98 -77 189 -161 114z"/>
<path d="M6949 10141 c-23 -23 -29 -38 -29 -71 0 -33 6 -48 29 -71 23 -23 38
-29 71 -29 33 0 48 6 71 29 23 23 29 38 29 71 0 33 -6 48 -29 71 -23 23 -38
29 -71 29 -33 0 -48 -6 -71 -29z"/>
<path d="M4157 10112 c-36 -40 -9 -102 44 -102 30 0 43 9 58 38 12 23 1 58
-23 74 -20 14 -63 8 -79 -10z"/>
<path d="M7606 10108 c-9 -12 -16 -29 -16 -38 0 -9 7 -26 16 -38 23 -34 83
-27 104 11 13 24 13 30 0 55 -21 37 -81 44 -104 10z"/>
<path d="M5870 9972 c-54 -27 -83 -77 -77 -134 2 -26 10 -54 17 -62 11 -14 15
-14 41 -1 36 19 110 19 155 0 l35 -14 15 34 c18 45 18 61 -6 113 -15 33 -29
47 -62 62 -53 24 -74 25 -118 2z"/>
<path d="M3982 9904 c-78 -33 -67 -143 16 -169 50 -15 112 37 112 94 0 27 -45
78 -74 83 -13 3 -38 -1 -54 -8z"/>
<path d="M7803 9905 c-57 -25 -71 -93 -29 -142 19 -22 32 -28 66 -28 34 0 47
6 66 28 42 49 22 125 -37 146 -18 6 -32 11 -33 11 -1 -1 -15 -7 -33 -15z"/>
<path d="M4783 9860 c-64 -39 -83 -128 -40 -191 12 -19 35 -38 49 -43 23 -8
31 -6 53 18 27 29 82 56 114 56 35 0 42 56 13 109 -35 66 -125 90 -189 51z"/>
<path d="M6933 9860 c-40 -24 -63 -67 -63 -120 0 -36 2 -40 25 -40 37 0 86
-23 114 -54 30 -32 51 -33 85 -1 118 110 -23 300 -161 215z"/>
<path d="M3852 9580 c-18 -11 -40 -37 -48 -57 -14 -32 -14 -40 0 -78 9 -23 27
-52 41 -65 l24 -22 35 27 c19 15 54 29 76 32 51 7 68 38 51 94 -23 78 -111
112 -179 69z"/>
<path d="M7879 9583 c-71 -44 -83 -163 -17 -163 30 0 81 -22 109 -46 13 -12
20 -9 48 20 80 82 31 207 -81 206 -18 0 -45 -8 -59 -17z"/>
<path d="M5861 9564 c-82 -69 -40 -194 66 -194 111 0 153 144 59 201 -44 27
-88 24 -125 -7z"/>
<path d="M4955 9491 c-35 -15 -57 -49 -62 -95 -5 -42 -3 -48 30 -81 75 -75
187 -28 187 80 0 70 -89 125 -155 96z"/>
<path d="M6794 9481 c-93 -57 -49 -201 61 -201 52 0 89 27 105 75 23 71 -30
145 -105 145 -16 0 -44 -9 -61 -19z"/>
<path d="M4024 9191 c-81 -49 -62 -170 31 -201 57 -19 129 25 141 85 18 97
-87 168 -172 116z"/>
<path d="M7724 9200 c-56 -22 -80 -100 -50 -158 25 -48 88 -70 139 -48 46 19
67 51 67 104 0 37 -6 50 -34 78 -35 35 -75 43 -122 24z"/>
<path d="M3055 8858 c-48 -17 -96 -58 -112 -96 -18 -43 -14 -88 17 -203 27
-103 22 -148 -20 -191 -23 -23 -37 -28 -74 -28 -43 0 -51 4 -101 55 -31 30
-59 55 -64 55 -5 0 -23 -16 -40 -35 -41 -47 -41 -97 -1 -205 36 -98 37 -136 7
-181 -23 -34 -24 -34 -97 -34 -85 0 -92 -7 -66 -69 17 -42 66 -108 76 -104 4
2 52 60 108 129 56 70 148 170 204 224 192 182 623 513 653 501 23 -8 9 -28
-58 -77 -101 -75 -322 -274 -472 -424 -139 -140 -350 -385 -350 -407 0 -15 90
-47 133 -48 35 0 39 11 17 50 -42 73 4 150 90 150 25 0 79 -11 122 -25 88 -28
111 -30 147 -13 45 20 43 44 -12 102 -27 29 -53 66 -56 83 -16 70 54 131 132
117 20 -4 77 -25 126 -47 49 -21 106 -42 127 -44 34 -5 43 -1 74 30 41 41 46
79 13 101 -13 8 -51 24 -85 36 -86 31 -113 58 -113 112 0 52 28 101 70 123 17
9 64 20 104 24 106 12 149 38 166 101 7 28 6 50 -5 88 -29 95 -94 148 -172
139 -57 -6 -93 -40 -140 -130 -47 -89 -87 -120 -161 -125 -51 -4 -59 -1 -82
23 -22 23 -25 37 -30 128 -7 132 -10 138 -75 115z"/>
<path d="M8742 8858 c-7 -7 -12 -41 -12 -77 -1 -147 -26 -191 -107 -191 -78 0
-119 32 -180 145 -60 109 -130 141 -213 96 -77 -41 -122 -173 -81 -238 30 -48
60 -63 150 -73 95 -11 141 -34 165 -84 39 -83 8 -134 -110 -180 -39 -14 -79
-32 -88 -39 -22 -16 -14 -51 19 -93 35 -44 94 -40 215 16 124 57 178 60 221
12 49 -55 39 -103 -38 -184 l-46 -46 26 -26 c33 -33 71 -34 167 -1 40 14 96
25 123 25 40 0 53 -5 78 -29 34 -35 37 -66 9 -120 -22 -43 -19 -51 21 -51 28
0 139 37 139 46 0 3 -56 71 -124 152 -180 214 -524 544 -722 693 -53 40 -69
69 -39 69 17 0 233 -156 395 -286 210 -168 355 -311 494 -486 77 -98 77 -98
128 -19 16 26 28 59 28 78 l0 33 -68 -6 c-67 -6 -68 -6 -95 26 -36 42 -35 93
3 203 17 48 30 96 30 107 0 35 -27 88 -54 106 -26 17 -27 17 -85 -40 -53 -50
-64 -56 -101 -56 -34 0 -48 6 -76 34 -29 29 -34 41 -34 83 0 26 12 90 26 142
28 102 27 135 -6 188 -29 49 -134 95 -158 71z"/>
<path d="M5863 8842 c-35 -20 -63 -39 -63 -42 0 -3 29 -22 64 -43 l65 -37 65
38 c36 20 66 39 66 42 0 3 -30 21 -68 42 l-67 36 -62 -36z"/>
<path d="M5159 8796 c-79 -18 -88 -22 -99 -51 -12 -31 2 -70 30 -85 26 -14
182 15 212 40 25 20 27 64 3 90 -21 23 -60 24 -146 6z"/>
<path d="M6546 8788 c-40 -57 -2 -99 110 -122 110 -22 144 -9 144 58 0 34 -28
53 -100 70 -94 23 -136 21 -154 -6z"/>
<path d="M4491 8568 c-16 -45 -14 -52 21 -73 l32 -18 43 49 43 49 -32 6 c-102
20 -95 21 -107 -13z"/>
<path d="M7286 8586 l-59 -11 38 -45 c20 -25 38 -46 40 -48 5 -6 75 32 75 40
0 11 -28 78 -32 77 -2 -1 -29 -6 -62 -13z"/>
<path d="M2041 7939 c-38 -41 -39 -144 -1 -206 18 -30 20 -30 64 -22 76 14
106 34 106 72 -1 47 -31 107 -74 145 -43 37 -68 40 -95 11z"/>
<path d="M2241 7690 c-53 -36 -99 -50 -168 -50 -59 0 -67 -12 -23 -35 63 -33
177 -8 212 47 12 19 30 68 25 68 -1 0 -22 -14 -46 -30z"/>
<path d="M9738 7942 c-14 -9 -37 -30 -49 -46 -24 -31 -52 -122 -43 -138 12
-18 89 -48 125 -48 31 0 38 4 49 29 34 83 28 177 -13 206 -27 19 -36 19 -69
-3z"/>
<path d="M9570 7711 c0 -7 7 -25 15 -41 42 -80 179 -110 238 -51 l21 21 -64 0
c-66 0 -151 30 -192 67 -12 11 -18 12 -18 4z"/>
<path d="M2612 7436 c-68 -58 -57 -206 20 -247 19 -10 20 -9 14 7 -27 69 -29
190 -4 237 15 29 3 30 -30 3z"/>
<path d="M2742 7410 c-18 -4 -36 -11 -40 -15 -4 -4 -7 -35 -7 -69 0 -88 11
-99 96 -94 122 7 188 78 125 137 -13 12 -45 29 -71 37 -53 15 -55 15 -103 4z"/>
<path d="M9214 7440 c17 -51 18 -174 3 -217 -16 -46 -13 -51 19 -28 73 50 69
206 -5 254 -24 15 -24 15 -17 -9z"/>
<path d="M9015 7406 c-62 -20 -85 -35 -96 -63 -21 -57 59 -112 163 -113 69 0
78 11 78 99 0 47 -4 62 -18 70 -32 17 -87 20 -127 7z"/>
<path d="M2057 7220 c-45 -39 -57 -79 -57 -188 0 -103 -21 -152 -80 -182 -21
-11 -48 -20 -59 -20 -31 0 -77 45 -115 114 -44 78 -58 91 -85 77 -38 -21 -74
-79 -79 -130 -6 -63 12 -97 104 -193 80 -84 99 -125 83 -183 -20 -71 -91 -93
-190 -58 -58 21 -69 14 -76 -49 -7 -61 11 -92 97 -168 97 -86 117 -131 89
-193 -12 -27 -36 -42 -89 -55 -27 -7 -34 -13 -32 -28 5 -27 20 -42 66 -69 76
-43 83 -42 90 12 22 151 74 369 126 524 97 291 261 649 297 649 24 0 14 -37
-61 -232 -129 -338 -202 -583 -251 -838 -14 -74 -25 -140 -25 -147 0 -28 119
-9 161 26 l22 18 -37 22 c-43 27 -56 48 -56 91 0 39 52 96 96 105 190 42 217
54 229 107 6 25 4 27 -65 49 -91 30 -120 57 -120 114 0 32 6 48 26 68 34 34
68 44 190 56 149 14 188 40 182 123 -4 58 -19 64 -121 48 -46 -7 -96 -10 -110
-6 -55 13 -87 78 -72 145 9 41 46 85 108 126 88 59 108 120 65 196 -32 58 -88
92 -157 97 -54 4 -61 2 -94 -28z"/>
<path d="M9615 7218 c-60 -40 -99 -106 -89 -153 9 -47 29 -71 95 -115 75 -52
99 -89 99 -156 0 -61 -25 -99 -70 -109 -17 -4 -71 -1 -120 6 -106 15 -115 11
-114 -57 2 -81 48 -107 214 -119 47 -4 99 -13 116 -20 42 -17 74 -61 74 -101
0 -50 -35 -83 -115 -109 -55 -17 -71 -27 -73 -44 -6 -36 46 -77 114 -90 118
-23 167 -44 191 -80 40 -60 31 -89 -46 -149 -14 -10 -21 -24 -17 -30 9 -15
101 -42 144 -42 30 0 34 2 29 23 -3 12 -15 74 -27 137 -47 255 -125 513 -260
863 -56 145 -70 191 -60 200 16 16 42 -17 95 -124 151 -299 273 -664 324 -967
11 -63 21 -116 24 -118 8 -8 89 36 120 64 40 38 36 58 -14 66 -58 9 -89 44
-89 98 0 54 24 89 106 157 86 70 107 120 83 190 -12 35 -20 37 -79 16 -23 -8
-62 -15 -85 -15 -37 0 -48 5 -74 35 -56 64 -43 112 65 227 108 115 124 161 83
245 -19 40 -64 83 -87 83 -6 0 -34 -38 -62 -85 -55 -92 -80 -115 -121 -115
-35 0 -88 37 -113 80 -17 28 -21 54 -22 136 -3 149 -32 195 -132 202 -51 4
-62 1 -107 -30z"/>
<path d="M1209 5709 c-37 -37 -10 -119 60 -182 23 -20 46 -37 52 -37 19 0 109
96 109 115 0 28 -80 99 -127 113 -56 17 -70 15 -94 -9z"/>
<path d="M1495 5571 c-21 -47 -95 -125 -136 -141 -45 -19 -35 -33 20 -28 56 6
95 32 128 86 23 37 29 86 15 110 -6 9 -14 1 -27 -27z"/>
<path d="M10558 5720 c-43 -13 -91 -46 -116 -80 l-23 -31 21 -35 c12 -19 37
-46 55 -60 31 -24 35 -24 62 -11 82 43 132 167 85 210 -20 18 -41 20 -84 7z"/>
<path d="M10331 5588 c-30 -78 63 -188 159 -188 40 0 38 11 -6 35 -45 24 -101
86 -124 138 l-19 41 -10 -26z"/>
<path d="M2093 5615 c-28 -15 -57 -32 -63 -40 -17 -20 2 -73 44 -121 l33 -38
49 25 c57 28 114 97 114 138 0 64 -85 81 -177 36z"/>
<path d="M1932 5567 c-27 -32 -25 -79 5 -136 30 -58 76 -91 125 -91 27 0 27 0
-17 41 -47 43 -85 111 -94 168 -5 29 -8 32 -19 18z"/>
<path d="M9612 5633 c-7 -3 -17 -16 -23 -30 -18 -49 45 -135 125 -168 35 -15
40 -15 57 1 10 9 30 39 44 67 l25 51 -23 24 c-44 48 -151 77 -205 55z"/>
<path d="M9910 5568 c-1 -45 -44 -131 -90 -178 -46 -47 -47 -50 -24 -50 37 0
79 25 110 66 34 44 44 128 20 159 -13 17 -15 18 -16 3z"/>
<path d="M1645 5170 c-17 -5 -44 -23 -60 -40 -26 -27 -30 -39 -30 -88 0 -49 6
-66 40 -121 34 -55 40 -73 43 -130 2 -53 -1 -72 -17 -99 -41 -65 -90 -63 -206
7 -78 46 -90 49 -105 21 -23 -43 -23 -107 -1 -154 28 -56 63 -79 183 -116 128
-40 178 -91 164 -166 -9 -46 -46 -74 -123 -93 -67 -16 -68 -17 -67 -49 4 -70
58 -114 163 -132 98 -16 128 -28 156 -61 39 -47 35 -102 -10 -145 -42 -39 -43
-46 -8 -65 25 -13 146 -20 157 -8 3 3 -8 41 -25 84 -73 191 -117 361 -154 600
-45 295 -58 572 -28 582 15 5 16 2 48 -217 34 -230 87 -495 130 -650 30 -111
110 -349 120 -358 8 -9 97 64 115 94 11 17 20 34 20 38 0 3 -18 6 -40 6 -76 0
-110 33 -110 108 0 34 8 45 90 122 95 91 120 133 100 170 -9 17 -18 21 -38 16
-62 -15 -149 -18 -170 -7 -31 16 -55 68 -48 102 10 50 35 77 135 143 133 89
156 134 106 209 -14 20 -29 37 -33 37 -7 0 -31 -15 -145 -92 -52 -36 -96 -36
-136 -2 -58 49 -60 113 -5 229 48 101 31 168 -51 209 -44 22 -117 29 -160 16z"/>
<path d="M10076 5165 c-57 -20 -96 -64 -103 -113 -4 -33 1 -54 31 -114 41 -84
47 -146 18 -191 -50 -75 -104 -77 -197 -7 -98 74 -102 76 -131 49 -45 -42 -48
-106 -6 -153 9 -10 53 -42 97 -71 44 -28 93 -66 108 -84 36 -44 37 -98 1 -140
-21 -26 -33 -31 -69 -31 -24 0 -67 5 -95 12 -59 13 -70 6 -70 -47 0 -25 16
-45 94 -120 75 -72 96 -98 101 -127 13 -69 -31 -118 -107 -118 -47 0 -49 -17
-7 -64 29 -34 97 -82 103 -75 2 2 26 72 54 156 85 250 143 509 197 878 15 99
31 184 35 189 5 4 14 5 21 1 16 -11 6 -228 -21 -445 -32 -249 -75 -446 -136
-625 -30 -88 -57 -168 -60 -177 -5 -13 3 -18 40 -23 51 -8 89 -1 124 21 l23
15 -41 46 c-38 40 -42 49 -36 82 8 54 59 96 132 110 118 23 167 44 191 80 13
19 23 49 23 67 0 30 -3 34 -37 39 -62 10 -122 35 -138 58 -35 50 -6 141 57
173 17 9 73 29 123 45 90 28 127 53 154 106 14 28 14 101 0 142 -14 40 -27 38
-128 -21 -92 -53 -132 -55 -172 -11 -34 39 -46 106 -29 160 7 21 29 64 48 96
62 101 46 188 -41 228 -50 22 -97 23 -151 4z"/>
<path d="M7755 4489 c-15 -41 -34 -89 -41 -108 -8 -18 -14 -35 -14 -37 0 -2
36 -4 80 -4 44 0 80 3 80 8 0 4 -18 54 -39 111 l-38 103 -28 -73z"/>
<path d="M8362 4519 l3 -94 39 -3 c79 -7 134 45 122 113 -9 49 -38 68 -107 73
l-60 4 3 -93z"/>
<path d="M2435 3751 c-42 -26 -71 -60 -91 -106 l-16 -40 35 -31 c20 -17 52
-35 71 -41 34 -10 37 -9 65 23 49 55 66 148 35 192 -19 27 -58 29 -99 3z"/>
<path d="M2250 3556 c0 -88 126 -166 209 -129 l36 16 -38 8 c-57 13 -118 47
-164 92 l-43 41 0 -28z"/>
<path d="M9343 3769 c-46 -17 -44 -134 4 -202 34 -48 53 -50 119 -12 64 37 66
44 40 100 -13 28 -34 60 -47 72 -36 33 -90 52 -116 42z"/>
<path d="M9575 3550 c-41 -44 -108 -81 -169 -96 l-51 -12 38 -16 c35 -16 43
-16 92 -2 36 11 62 27 84 51 52 60 58 129 6 75z"/>
<path d="M3545 3647 c-77 -36 -114 -143 -85 -249 33 -117 180 -152 260 -62 71
81 60 238 -22 297 -34 25 -113 32 -153 14z"/>
<path d="M6455 3646 c-38 -17 -60 -41 -80 -89 -31 -75 -10 -193 43 -240 54
-48 161 -39 211 18 56 64 60 196 10 267 -38 53 -119 73 -184 44z"/>
<path d="M1605 3395 c-39 -14 -65 -38 -65 -59 0 -50 109 -126 180 -126 44 0
59 24 67 107 5 49 4 52 -23 66 -46 24 -114 29 -159 12z"/>
<path d="M1860 3348 c0 -71 -17 -132 -50 -179 -23 -32 -14 -37 29 -15 79 41
103 185 41 241 -20 18 -20 17 -20 -47z"/>
<path d="M9964 3385 c-50 -77 -8 -215 74 -240 27 -8 28 -1 4 33 -33 48 -47 96
-47 164 0 38 -3 68 -7 68 -4 0 -15 -11 -24 -25z"/>
<path d="M10115 3392 l-50 -17 1 -45 c1 -25 9 -62 17 -83 13 -30 21 -37 43
-37 79 0 184 68 184 118 0 15 -4 32 -8 38 -25 37 -118 50 -187 26z"/>
<path d="M2275 3141 c-22 -10 -53 -33 -70 -50 -26 -28 -30 -40 -30 -91 0 -54
3 -62 35 -95 19 -20 61 -50 93 -67 32 -17 67 -43 78 -56 30 -38 44 -97 33
-140 -14 -56 -55 -72 -173 -71 -63 1 -96 -3 -101 -11 -10 -17 7 -90 28 -119
51 -70 109 -83 239 -52 107 25 144 26 183 6 41 -21 60 -53 60 -103 0 -39 -5
-48 -55 -96 -30 -29 -55 -59 -55 -68 0 -23 55 -66 93 -73 22 -4 63 3 131 25
115 37 154 35 198 -7 27 -25 29 -33 25 -73 -3 -25 -8 -55 -12 -66 -14 -45 60
-37 138 14 l38 26 -63 55 c-236 207 -445 451 -645 751 -79 118 -103 162 -103
185 0 35 33 4 141 -135 222 -286 378 -461 578 -649 77 -72 144 -131 149 -131
5 0 19 24 30 53 30 75 34 95 27 117 -6 20 -6 20 -45 0 -63 -32 -95 -25 -133
30 -25 36 -21 88 13 180 17 45 30 94 30 109 0 28 -33 81 -51 81 -5 0 -28 -17
-52 -39 -78 -71 -125 -80 -176 -32 -49 45 -44 100 19 225 53 106 63 163 35
202 -17 26 -69 48 -90 40 -9 -3 -33 -43 -54 -89 -46 -100 -80 -131 -131 -123
-19 3 -46 14 -59 24 -49 36 -63 66 -72 156 -5 48 -16 100 -24 116 -30 59 -121
78 -200 41z"/>
<path d="M9431 3147 c-46 -23 -63 -60 -71 -151 -12 -130 -58 -191 -145 -191
-57 0 -77 20 -116 114 -17 42 -36 82 -41 89 -17 21 -56 13 -90 -17 -49 -43
-45 -93 17 -215 27 -54 50 -114 52 -140 5 -42 3 -48 -30 -81 -50 -50 -89 -48
-157 8 -82 66 -79 65 -101 38 -27 -33 -24 -83 11 -181 35 -100 37 -124 10
-168 -30 -49 -62 -60 -120 -39 -62 22 -60 22 -60 -15 1 -40 42 -143 57 -143 6
0 69 52 138 115 183 165 385 392 610 685 53 69 100 125 105 125 34 0 11 -54
-83 -195 -180 -270 -406 -539 -591 -704 -64 -56 -113 -107 -110 -112 21 -34
148 -78 168 -58 3 3 -1 23 -9 44 -21 59 -18 83 13 115 46 45 85 47 208 10 94
-29 111 -31 145 -21 36 11 79 51 79 75 0 6 -26 34 -57 62 -55 49 -58 54 -58
98 0 38 5 51 31 77 42 42 94 47 207 20 49 -12 103 -21 120 -21 45 0 98 29 123
68 26 38 41 109 26 124 -6 6 -49 10 -96 9 -135 -2 -176 24 -176 109 0 71 33
115 125 165 95 51 134 109 121 180 -18 96 -168 167 -255 122z"/>
<path d="M3591 2294 c-46 -59 -60 -176 -23 -206 8 -7 41 -13 74 -13 48 0 63 4
74 20 29 40 11 159 -33 207 -24 27 -68 23 -92 -8z"/>
<path d="M3500 2023 c0 -20 58 -62 98 -71 69 -16 147 11 173 60 10 19 9 20 -7
14 -70 -27 -178 -27 -246 -1 -10 4 -18 3 -18 -2z"/>
<path d="M8175 2304 c-33 -33 -49 -79 -50 -141 0 -36 5 -67 12 -74 8 -8 40
-13 79 -13 78 0 94 14 94 77 0 118 -79 207 -135 151z"/>
<path d="M8325 2022 c-37 -19 -179 -22 -213 -3 -36 19 -39 5 -7 -29 62 -65
206 -53 245 21 15 28 10 30 -25 11z"/>
<path d="M4291 1796 c-9 -11 -10 -44 -5 -119 7 -116 1 -138 -46 -162 -75 -39
-144 -8 -215 96 -57 85 -104 115 -159 105 -71 -13 -135 -79 -157 -160 -9 -34
-8 -48 8 -85 27 -65 80 -91 187 -91 65 0 91 -5 126 -22 83 -42 115 -129 68
-182 -13 -14 -59 -45 -102 -68 -44 -24 -81 -48 -83 -55 -6 -17 57 -84 94 -99
75 -32 131 -13 238 81 82 71 108 85 160 85 47 0 84 -19 101 -51 19 -37 18 -59
-6 -126 -26 -75 -26 -79 11 -92 79 -27 117 -11 211 88 71 75 98 91 153 91 46
0 75 -27 90 -85 14 -56 30 -65 66 -36 26 20 85 119 76 127 -2 3 -60 16 -127
30 -208 42 -542 161 -795 284 -143 69 -165 84 -148 101 9 9 28 6 85 -16 398
-150 627 -224 828 -268 191 -42 180 -41 180 -7 0 44 -19 123 -35 144 -14 18
-17 17 -59 -29 -42 -44 -48 -47 -82 -42 -41 7 -77 36 -93 75 -6 15 -17 68 -26
117 -16 97 -36 134 -79 150 -33 11 -39 4 -62 -74 -21 -72 -60 -111 -111 -111
-84 0 -114 50 -120 205 -5 129 -15 167 -50 195 -31 24 -104 27 -122 6z"/>
<path d="M7436 1787 c-30 -30 -46 -104 -46 -207 0 -96 -20 -154 -61 -175 -74
-39 -135 -2 -169 101 -12 36 -29 68 -37 71 -18 7 -64 -26 -80 -58 -7 -14 -17
-59 -24 -100 -14 -98 -39 -154 -78 -173 -58 -31 -97 -16 -142 54 -14 21 -19
23 -32 12 -18 -15 -37 -86 -37 -140 l0 -39 78 13 c188 33 560 147 857 263 142
56 158 59 153 34 -7 -40 -336 -190 -638 -292 -135 -46 -349 -101 -393 -101
-15 0 -30 -6 -33 -14 -13 -33 73 -146 111 -146 15 0 25 22 25 57 0 38 51 83
95 83 51 0 69 -11 163 -104 l82 -81 60 0 c41 0 64 5 75 16 15 14 14 20 -4 68
-31 76 -28 126 8 162 24 24 38 29 76 29 58 0 91 -17 167 -87 67 -62 126 -93
178 -93 69 0 167 80 144 118 -6 9 -40 33 -77 52 -72 39 -113 73 -123 102 -14
46 46 134 109 157 16 6 61 11 100 11 93 0 136 13 173 51 26 27 29 37 29 94 0
55 -4 69 -31 107 -41 56 -110 93 -158 84 -45 -9 -89 -46 -122 -102 -30 -51
-84 -101 -120 -110 -39 -10 -94 3 -122 28 -24 22 -24 26 -19 133 3 63 1 118
-4 128 -16 28 -103 23 -133 -6z"/>
<path d="M3274 1633 c32 -48 60 -156 53 -200 -7 -43 9 -40 35 8 34 62 5 173
-56 210 -49 30 -59 24 -32 -18z"/>
<path d="M3126 1585 c-52 -19 -87 -45 -110 -84 -17 -29 -17 -33 -2 -55 31 -48
143 -59 216 -21 30 15 31 19 25 58 -17 105 -50 131 -129 102z"/>
<path d="M8552 1650 c-66 -41 -92 -154 -50 -220 l22 -35 7 75 c6 73 31 142 67
183 22 24 -3 23 -46 -3z"/>
<path d="M8627 1564 c-10 -20 -20 -56 -24 -80 l-6 -44 44 -20 c98 -44 209 -13
209 59 0 32 -67 89 -123 106 -72 21 -81 19 -100 -21z"/>
<path d="M5866 1145 l-57 -65 58 -65 58 -65 58 62 c32 34 56 66 54 72 -4 13
-100 124 -108 125 -3 1 -31 -28 -63 -64z"/>
</g>
</svg>
